<svg xmlns="http://www.w3.org/2000/svg" xmlns:xlink="http://www.w3.org/1999/xlink" style="margin:auto;background:#f1f2f3;display:block;z-index:1;position:relative" width="2152" height="865" preserveAspectRatio="xMidYMid" viewBox="0 0 2152 865">
<g transform="translate(1076,432.5) scale(1,1) translate(-1076,-432.5)"><defs>
<linearGradient id="lg-0.19120263294830586" x1="0" x2="0" y1="0" y2="1">
  <stop stop-color="#13131a" offset="0.51"></stop>
  <stop stop-color="#13131a" offset="0.755"></stop>
  <stop stop-color="#13131a" offset="1"></stop>
</linearGradient>
<linearGradient id="fg-lg-0.19120263294830586" x1="0" x2="0" y1="0" y2="1">
  <stop stop-color="#13131a" stop-opacity="1" offset="0.51"></stop>
  <stop stop-color="#13131a" stop-opacity="0.66" offset="0.755"></stop>
  <stop stop-color="#13131a" stop-opacity="0" offset="1"></stop>
</linearGradient>
<style type="text/css">
  path { fill: none; stroke: #1e947f; stroke-width: 2px }
</style>
</defs>
<rect x="0" y="0" width="2152" height="865" fill="url(#lg-0.19120263294830586)"></rect><path d="M0 441.15000000000003 L-9899.199999999999 865"></path><path d="M10.76 441.15000000000003 L-9789.447999999999 865"></path><path d="M21.52 441.15000000000003 L-9679.695999999998 865"></path><path d="M32.28 441.15000000000003 L-9569.944 865"></path><path d="M43.04 441.15000000000003 L-9460.192 865"></path><path d="M53.8 441.15000000000003 L-9350.439999999999 865"></path><path d="M64.56 441.15000000000003 L-9240.687999999998 865"></path><path d="M75.32 441.15000000000003 L-9130.936 865"></path><path d="M86.08 441.15000000000003 L-9021.184 865"></path><path d="M96.84 441.15000000000003 L-8911.431999999999 865"></path><path d="M107.6 441.15000000000003 L-8801.679999999998 865"></path><path d="M118.36 441.15000000000003 L-8691.928 865"></path><path d="M129.12 441.15000000000003 L-8582.176 865"></path><path d="M139.88 441.15000000000003 L-8472.423999999999 865"></path><path d="M150.64 441.15000000000003 L-8362.671999999999 865"></path><path d="M161.4 441.15000000000003 L-8252.919999999998 865"></path><path d="M172.16 441.15000000000003 L-8143.167999999999 865"></path><path d="M182.92 441.15000000000003 L-8033.415999999999 865"></path><path d="M193.68 441.15000000000003 L-7923.663999999999 865"></path><path d="M204.44 441.15000000000003 L-7813.911999999998 865"></path><path d="M215.2 441.15000000000003 L-7704.16 865"></path><path d="M225.96 441.15000000000003 L-7594.407999999999 865"></path><path d="M236.72 441.15000000000003 L-7484.655999999999 865"></path><path d="M247.48 441.15000000000003 L-7374.903999999999 865"></path><path d="M258.24 441.15000000000003 L-7265.151999999999 865"></path><path d="M269 441.15000000000003 L-7155.399999999999 865"></path><path d="M279.76 441.15000000000003 L-7045.647999999999 865"></path><path d="M290.52 441.15000000000003 L-6935.895999999999 865"></path><path d="M301.28 441.15000000000003 L-6826.143999999999 865"></path><path d="M312.04 441.15000000000003 L-6716.391999999999 865"></path><path d="M322.8 441.15000000000003 L-6606.639999999999 865"></path><path d="M333.56 441.15000000000003 L-6496.887999999999 865"></path><path d="M344.32 441.15000000000003 L-6387.135999999999 865"></path><path d="M355.08 441.15000000000003 L-6277.383999999999 865"></path><path d="M365.84 441.15000000000003 L-6167.632 865"></path><path d="M376.6 441.15000000000003 L-6057.879999999999 865"></path><path d="M387.36 441.15000000000003 L-5948.127999999999 865"></path><path d="M398.12 441.15000000000003 L-5838.375999999999 865"></path><path d="M408.88 441.15000000000003 L-5728.623999999999 865"></path><path d="M419.64 441.15000000000003 L-5618.871999999999 865"></path><path d="M430.4 441.15000000000003 L-5509.12 865"></path><path d="M441.16 441.15000000000003 L-5399.3679999999995 865"></path><path d="M451.92 441.15000000000003 L-5289.615999999999 865"></path><path d="M462.68 441.15000000000003 L-5179.864 865"></path><path d="M473.44 441.15000000000003 L-5070.111999999999 865"></path><path d="M484.2 441.15000000000003 L-4960.36 865"></path><path d="M494.96 441.15000000000003 L-4850.607999999999 865"></path><path d="M505.72 441.15000000000003 L-4740.855999999999 865"></path><path d="M516.48 441.15000000000003 L-4631.103999999999 865"></path><path d="M527.24 441.15000000000003 L-4521.352 865"></path><path d="M538 441.15000000000003 L-4411.5999999999985 865"></path><path d="M548.76 441.15000000000003 L-4301.847999999999 865"></path><path d="M559.52 441.15000000000003 L-4192.096 865"></path><path d="M570.28 441.15000000000003 L-4082.343999999999 865"></path><path d="M581.04 441.15000000000003 L-3972.5919999999996 865"></path><path d="M591.8 441.15000000000003 L-3862.84 865"></path><path d="M602.56 441.15000000000003 L-3753.0879999999997 865"></path><path d="M613.32 441.15000000000003 L-3643.3360000000002 865"></path><path d="M624.08 441.15000000000003 L-3533.583999999999 865"></path><path d="M634.84 441.15000000000003 L-3423.8319999999994 865"></path><path d="M645.6 441.15000000000003 L-3314.08 865"></path><path d="M656.36 441.15000000000003 L-3204.3279999999995 865"></path><path d="M667.12 441.15000000000003 L-3094.576 865"></path><path d="M677.88 441.15000000000003 L-2984.8239999999987 865"></path><path d="M688.64 441.15000000000003 L-2875.071999999999 865"></path><path d="M699.4 441.15000000000003 L-2765.3199999999997 865"></path><path d="M710.16 441.15000000000003 L-2655.5679999999993 865"></path><path d="M720.92 441.15000000000003 L-2545.816 865"></path><path d="M731.68 441.15000000000003 L-2436.0639999999994 865"></path><path d="M742.44 441.15000000000003 L-2326.312 865"></path><path d="M753.2 441.15000000000003 L-2216.5600000000004 865"></path><path d="M763.96 441.15000000000003 L-2106.807999999999 865"></path><path d="M774.72 441.15000000000003 L-1997.0559999999996 865"></path><path d="M785.48 441.15000000000003 L-1887.3039999999992 865"></path><path d="M796.24 441.15000000000003 L-1777.5519999999997 865"></path><path d="M807 441.15000000000003 L-1667.7999999999993 865"></path><path d="M817.76 441.15000000000003 L-1558.0479999999989 865"></path><path d="M828.52 441.15000000000003 L-1448.2960000000003 865"></path><path d="M839.28 441.15000000000003 L-1338.5439999999999 865"></path><path d="M850.04 441.15000000000003 L-1228.7919999999995 865"></path><path d="M860.8 441.15000000000003 L-1119.0400000000009 865"></path><path d="M871.56 441.15000000000003 L-1009.2879999999986 865"></path><path d="M882.32 441.15000000000003 L-899.5360000000001 865"></path><path d="M893.08 441.15000000000003 L-789.7839999999997 865"></path><path d="M903.84 441.15000000000003 L-680.0319999999992 865"></path><path d="M914.6 441.15000000000003 L-570.2800000000007 865"></path><path d="M925.36 441.15000000000003 L-460.52800000000025 865"></path><path d="M936.12 441.15000000000003 L-350.77599999999984 865"></path><path d="M946.88 441.15000000000003 L-241.02399999999943 865"></path><path d="M957.64 441.15000000000003 L-131.27199999999903 865"></path><path d="M968.4 441.15000000000003 L-21.520000000000437 865"></path><path d="M979.16 441.15000000000003 L88.23199999999997 865"></path><path d="M989.92 441.15000000000003 L197.98400000000038 865"></path><path d="M1000.68 441.15000000000003 L307.73599999999897 865"></path><path d="M1011.44 441.15000000000003 L417.4880000000012 865"></path><path d="M1022.2 441.15000000000003 L527.2399999999998 865"></path><path d="M1032.96 441.15000000000003 L636.9920000000002 865"></path><path d="M1043.72 441.15000000000003 L746.7440000000006 865"></path><path d="M1054.48 441.15000000000003 L856.4959999999992 865"></path><path d="M1065.24 441.15000000000003 L966.2479999999996 865"></path><path d="M1076 441.15000000000003 L1076.0000000000018 865"></path><path d="M1086.76 441.15000000000003 L1185.7520000000004 865"></path><path d="M1097.52 441.15000000000003 L1295.5040000000008 865"></path><path d="M1108.28 441.15000000000003 L1405.2559999999994 865"></path><path d="M1119.04 441.15000000000003 L1515.0079999999998 865"></path><path d="M1129.8 441.15000000000003 L1624.7600000000002 865"></path><path d="M1140.56 441.15000000000003 L1734.5120000000006 865"></path><path d="M1151.32 441.15000000000003 L1844.264000000001 865"></path><path d="M1162.08 441.15000000000003 L1954.0159999999996 865"></path><path d="M1172.84 441.15000000000003 L2063.768 865"></path><path d="M1183.6 441.15000000000003 L2173.5199999999986 865"></path><path d="M1194.36 441.15000000000003 L2283.272000000001 865"></path><path d="M1205.12 441.15000000000003 L2393.0239999999994 865"></path><path d="M1215.88 441.15000000000003 L2502.776 865"></path><path d="M1226.64 441.15000000000003 L2612.5279999999984 865"></path><path d="M1237.4 441.15000000000003 L2722.279999999999 865"></path><path d="M1248.16 441.15000000000003 L2832.032000000001 865"></path><path d="M1258.92 441.15000000000003 L2941.7839999999997 865"></path><path d="M1269.68 441.15000000000003 L3051.536 865"></path><path d="M1280.44 441.15000000000003 L3161.2879999999986 865"></path><path d="M1291.2 441.15000000000003 L3271.039999999999 865"></path><path d="M1301.96 441.15000000000003 L3380.7920000000013 865"></path><path d="M1312.72 441.15000000000003 L3490.544 865"></path><path d="M1323.48 441.15000000000003 L3600.2960000000003 865"></path><path d="M1334.24 441.15000000000003 L3710.047999999999 865"></path><path d="M1345 441.15000000000003 L3819.7999999999993 865"></path><path d="M1355.76 441.15000000000003 L3929.5520000000015 865"></path><path d="M1366.52 441.15000000000003 L4039.304 865"></path><path d="M1377.28 441.15000000000003 L4149.0560000000005 865"></path><path d="M1388.04 441.15000000000003 L4258.807999999999 865"></path><path d="M1398.8 441.15000000000003 L4368.5599999999995 865"></path><path d="M1409.56 441.15000000000003 L4478.312 865"></path><path d="M1420.32 441.15000000000003 L4588.064 865"></path><path d="M1431.08 441.15000000000003 L4697.815999999999 865"></path><path d="M1441.84 441.15000000000003 L4807.567999999999 865"></path><path d="M1452.6 441.15000000000003 L4917.319999999998 865"></path><path d="M1463.36 441.15000000000003 L5027.072 865"></path><path d="M1474.12 441.15000000000003 L5136.8240000000005 865"></path><path d="M1484.88 441.15000000000003 L5246.575999999999 865"></path><path d="M1495.64 441.15000000000003 L5356.3279999999995 865"></path><path d="M1506.4 441.15000000000003 L5466.079999999998 865"></path><path d="M1517.16 441.15000000000003 L5575.832 865"></path><path d="M1527.92 441.15000000000003 L5685.584000000001 865"></path><path d="M1538.68 441.15000000000003 L5795.335999999999 865"></path><path d="M1549.44 441.15000000000003 L5905.088 865"></path><path d="M1560.2 441.15000000000003 L6014.839999999998 865"></path><path d="M1570.96 441.15000000000003 L6124.592000000001 865"></path><path d="M1581.72 441.15000000000003 L6234.344000000001 865"></path><path d="M1592.48 441.15000000000003 L6344.096 865"></path><path d="M1603.24 441.15000000000003 L6453.848 865"></path><path d="M1614 441.15000000000003 L6563.6 865"></path><path d="M1624.76 441.15000000000003 L6673.351999999997 865"></path><path d="M1635.52 441.15000000000003 L6783.104000000001 865"></path><path d="M1646.28 441.15000000000003 L6892.855999999998 865"></path><path d="M1657.04 441.15000000000003 L7002.607999999998 865"></path><path d="M1667.8 441.15000000000003 L7112.359999999999 865"></path><path d="M1678.56 441.15000000000003 L7222.111999999999 865"></path><path d="M1689.32 441.15000000000003 L7331.864 865"></path><path d="M1700.08 441.15000000000003 L7441.616 865"></path><path d="M1710.84 441.15000000000003 L7551.368 865"></path><path d="M1721.6 441.15000000000003 L7661.119999999997 865"></path><path d="M1732.36 441.15000000000003 L7770.871999999998 865"></path><path d="M1743.12 441.15000000000003 L7880.624000000002 865"></path><path d="M1753.88 441.15000000000003 L7990.375999999998 865"></path><path d="M1764.64 441.15000000000003 L8100.127999999999 865"></path><path d="M1775.4 441.15000000000003 L8209.88 865"></path><path d="M1786.16 441.15000000000003 L8319.632 865"></path><path d="M1796.92 441.15000000000003 L8429.384 865"></path><path d="M1807.68 441.15000000000003 L8539.136 865"></path><path d="M1818.44 441.15000000000003 L8648.888 865"></path><path d="M1829.2 441.15000000000003 L8758.639999999998 865"></path><path d="M1839.96 441.15000000000003 L8868.391999999998 865"></path><path d="M1850.72 441.15000000000003 L8978.143999999998 865"></path><path d="M1861.48 441.15000000000003 L9087.895999999999 865"></path><path d="M1872.24 441.15000000000003 L9197.648 865"></path><path d="M1883 441.15000000000003 L9307.4 865"></path><path d="M1893.76 441.15000000000003 L9417.152 865"></path><path d="M1904.52 441.15000000000003 L9526.904 865"></path><path d="M1915.28 441.15000000000003 L9636.656 865"></path><path d="M1926.04 441.15000000000003 L9746.407999999998 865"></path><path d="M1936.8 441.15000000000003 L9856.159999999998 865"></path><path d="M1947.56 441.15000000000003 L9965.911999999998 865"></path><path d="M1958.32 441.15000000000003 L10075.663999999999 865"></path><path d="M1969.08 441.15000000000003 L10185.416 865"></path><path d="M1979.84 441.15000000000003 L10295.168 865"></path><path d="M1990.6 441.15000000000003 L10404.92 865"></path><path d="M2001.36 441.15000000000003 L10514.671999999997 865"></path><path d="M2012.12 441.15000000000003 L10624.424 865"></path><path d="M2022.88 441.15000000000003 L10734.176000000001 865"></path><path d="M2033.64 441.15000000000003 L10843.927999999998 865"></path><path d="M2044.4 441.15000000000003 L10953.679999999998 865"></path><path d="M2055.16 441.15000000000003 L11063.431999999999 865"></path><path d="M2065.92 441.15000000000003 L11173.184 865"></path><path d="M2076.68 441.15000000000003 L11282.935999999996 865"></path><path d="M2087.44 441.15000000000003 L11392.688 865"></path><path d="M2098.2 441.15000000000003 L11502.44 865"></path><path d="M2108.96 441.15000000000003 L11612.191999999997 865"></path><path d="M2119.72 441.15000000000003 L11721.944000000001 865"></path><path d="M2130.48 441.15000000000003 L11831.695999999998 865"></path><path d="M2141.24 441.15000000000003 L11941.447999999999 865"></path><path d="M2152 441.15000000000003 L12051.200000000003 865"></path><g>
<path d="M0 441.15000000000003 L2152 441.15000000000003"></path>
<animateTransform attributeName="transform" type="translate" repeatCount="indefinite" calcMode="linear" keyTimes="0;1" values="0 0;0 1.35632" begin="0s" dur="5.5555555555555545s"></animateTransform>

</g><g>
<path d="M0 442.50632 L2152 442.50632"></path>
<animateTransform attributeName="transform" type="translate" repeatCount="indefinite" calcMode="linear" keyTimes="0;1" values="0 0;0 2.7126399999999995" begin="0s" dur="5.5555555555555545s"></animateTransform>

</g><g>
<path d="M0 445.21896000000004 L2152 445.21896000000004"></path>
<animateTransform attributeName="transform" type="translate" repeatCount="indefinite" calcMode="linear" keyTimes="0;1" values="0 0;0 4.06896" begin="0s" dur="5.5555555555555545s"></animateTransform>

</g><g>
<path d="M0 449.28792000000004 L2152 449.28792000000004"></path>
<animateTransform attributeName="transform" type="translate" repeatCount="indefinite" calcMode="linear" keyTimes="0;1" values="0 0;0 5.42528" begin="0s" dur="5.5555555555555545s"></animateTransform>

</g><g>
<path d="M0 454.71320000000003 L2152 454.71320000000003"></path>
<animateTransform attributeName="transform" type="translate" repeatCount="indefinite" calcMode="linear" keyTimes="0;1" values="0 0;0 6.781599999999999" begin="0s" dur="5.5555555555555545s"></animateTransform>

</g><g>
<path d="M0 461.49480000000005 L2152 461.49480000000005"></path>
<animateTransform attributeName="transform" type="translate" repeatCount="indefinite" calcMode="linear" keyTimes="0;1" values="0 0;0 8.13792" begin="0s" dur="5.5555555555555545s"></animateTransform>

</g><g>
<path d="M0 469.63272000000006 L2152 469.63272000000006"></path>
<animateTransform attributeName="transform" type="translate" repeatCount="indefinite" calcMode="linear" keyTimes="0;1" values="0 0;0 9.49424" begin="0s" dur="5.5555555555555545s"></animateTransform>

</g><g>
<path d="M0 479.12696000000005 L2152 479.12696000000005"></path>
<animateTransform attributeName="transform" type="translate" repeatCount="indefinite" calcMode="linear" keyTimes="0;1" values="0 0;0 10.85056" begin="0s" dur="5.5555555555555545s"></animateTransform>

</g><g>
<path d="M0 489.97752 L2152 489.97752"></path>
<animateTransform attributeName="transform" type="translate" repeatCount="indefinite" calcMode="linear" keyTimes="0;1" values="0 0;0 12.20688" begin="0s" dur="5.5555555555555545s"></animateTransform>

</g><g>
<path d="M0 502.18440000000004 L2152 502.18440000000004"></path>
<animateTransform attributeName="transform" type="translate" repeatCount="indefinite" calcMode="linear" keyTimes="0;1" values="0 0;0 13.5632" begin="0s" dur="5.5555555555555545s"></animateTransform>

</g><g>
<path d="M0 515.7476 L2152 515.7476"></path>
<animateTransform attributeName="transform" type="translate" repeatCount="indefinite" calcMode="linear" keyTimes="0;1" values="0 0;0 14.919519999999999" begin="0s" dur="5.5555555555555545s"></animateTransform>

</g><g>
<path d="M0 530.6671200000001 L2152 530.6671200000001"></path>
<animateTransform attributeName="transform" type="translate" repeatCount="indefinite" calcMode="linear" keyTimes="0;1" values="0 0;0 16.27584" begin="0s" dur="5.5555555555555545s"></animateTransform>

</g><g>
<path d="M0 546.9429600000001 L2152 546.9429600000001"></path>
<animateTransform attributeName="transform" type="translate" repeatCount="indefinite" calcMode="linear" keyTimes="0;1" values="0 0;0 17.63216" begin="0s" dur="5.5555555555555545s"></animateTransform>

</g><g>
<path d="M0 564.5751200000001 L2152 564.5751200000001"></path>
<animateTransform attributeName="transform" type="translate" repeatCount="indefinite" calcMode="linear" keyTimes="0;1" values="0 0;0 18.98848" begin="0s" dur="5.5555555555555545s"></animateTransform>

</g><g>
<path d="M0 583.5636000000001 L2152 583.5636000000001"></path>
<animateTransform attributeName="transform" type="translate" repeatCount="indefinite" calcMode="linear" keyTimes="0;1" values="0 0;0 20.3448" begin="0s" dur="5.5555555555555545s"></animateTransform>

</g><g>
<path d="M0 603.9084 L2152 603.9084"></path>
<animateTransform attributeName="transform" type="translate" repeatCount="indefinite" calcMode="linear" keyTimes="0;1" values="0 0;0 21.70112" begin="0s" dur="5.5555555555555545s"></animateTransform>

</g><g>
<path d="M0 625.60952 L2152 625.60952"></path>
<animateTransform attributeName="transform" type="translate" repeatCount="indefinite" calcMode="linear" keyTimes="0;1" values="0 0;0 23.05744" begin="0s" dur="5.5555555555555545s"></animateTransform>

</g><g>
<path d="M0 648.66696 L2152 648.66696"></path>
<animateTransform attributeName="transform" type="translate" repeatCount="indefinite" calcMode="linear" keyTimes="0;1" values="0 0;0 24.41376" begin="0s" dur="5.5555555555555545s"></animateTransform>

</g><g>
<path d="M0 673.08072 L2152 673.08072"></path>
<animateTransform attributeName="transform" type="translate" repeatCount="indefinite" calcMode="linear" keyTimes="0;1" values="0 0;0 25.77008" begin="0s" dur="5.5555555555555545s"></animateTransform>

</g><g>
<path d="M0 698.8508 L2152 698.8508"></path>
<animateTransform attributeName="transform" type="translate" repeatCount="indefinite" calcMode="linear" keyTimes="0;1" values="0 0;0 27.1264" begin="0s" dur="5.5555555555555545s"></animateTransform>

</g><g>
<path d="M0 725.9772 L2152 725.9772"></path>
<animateTransform attributeName="transform" type="translate" repeatCount="indefinite" calcMode="linear" keyTimes="0;1" values="0 0;0 28.48272" begin="0s" dur="5.5555555555555545s"></animateTransform>

</g><g>
<path d="M0 754.45992 L2152 754.45992"></path>
<animateTransform attributeName="transform" type="translate" repeatCount="indefinite" calcMode="linear" keyTimes="0;1" values="0 0;0 29.83904" begin="0s" dur="5.5555555555555545s"></animateTransform>

</g><g>
<path d="M0 784.29896 L2152 784.29896"></path>
<animateTransform attributeName="transform" type="translate" repeatCount="indefinite" calcMode="linear" keyTimes="0;1" values="0 0;0 31.195359999999997" begin="0s" dur="5.5555555555555545s"></animateTransform>

</g><g>
<path d="M0 815.49432 L2152 815.49432"></path>
<animateTransform attributeName="transform" type="translate" repeatCount="indefinite" calcMode="linear" keyTimes="0;1" values="0 0;0 32.55168" begin="0s" dur="5.5555555555555545s"></animateTransform>

</g><g>
<path d="M0 848.046 L2152 848.046"></path>
<animateTransform attributeName="transform" type="translate" repeatCount="indefinite" calcMode="linear" keyTimes="0;1" values="0 0;0 33.907999999999994" begin="0s" dur="5.5555555555555545s"></animateTransform>

</g><rect x="0" y="0" width="2152" height="865" fill="url(#fg-lg-0.19120263294830586)"></rect></g>
</svg>
